<?xml version="1.0" encoding="utf-8"?>
<!-- Generator: Adobe Illustrator 23.0.3, SVG Export Plug-In . SVG Version: 6.00 Build 0)  -->
<svg version="1.1" id="Calque_1" xmlns="http://www.w3.org/2000/svg" xmlns:xlink="http://www.w3.org/1999/xlink" x="0px" y="0px"
	 viewBox="0 0 325.13 447.39" style="enable-background:new 0 0 325.13 447.39;" xml:space="preserve">
<style type="text/css">
	.st0{fill:#FFFFFF;}
	.st1{fill:#333333;}
</style>
<g>
	<path class="st0" d="M55.85,349.57c-3.68-2.61-3.84-6.4-0.79-9.81c1.6-1.79,2.66-3.83,3.52-5.98c3.47-8.75,2.4-10.21-7.17-10.44
		c-13.77-0.33-27.41-1.75-40.82-5.03c-5.62-1.37-5.27-1.32-5.74,4.68c-0.95,12.03,3.04,23.75,2.01,35.71
		c-0.57,6.65,2.09,11.5,6.7,15.8c16.31,15.2,34.61,27.79,53.89,41.33c-0.96-4.53,0.59-7.72,1.49-11.03c0.43-1.59,1.23-3.11,0.9-4.84
		c-1.99-10.27-0.92-20.45,0.88-30.61c0.57-3.2-0.14-5.95-2.53-8.18C64.07,357.31,60.53,352.89,55.85,349.57z"/>
	<path class="st0" d="M121.97,176.37c9.99,7.42,21.56,11.37,33.51,13.5c2.38,0.42,4.74,0.77,7.09,1.04
		c2.34-0.27,4.71-0.61,7.09-1.04c11.95-2.13,23.52-6.08,33.51-13.5c6.03-4.48,10.68-9.95,12.68-17.39c1.02-3.81,0.24-6.41-3.94-7.67
		c-2.34-0.7-4.46-2.12-7.17-3.46c-2.19,10.18-7.98,17.93-17.12,22.42c-8.28,4.07-16.63,7.29-25.05,8.51
		c-8.42-1.22-16.77-4.45-25.05-8.51c-9.13-4.48-14.93-12.24-17.12-22.42c-2.71,1.34-4.84,2.76-7.17,3.46
		c-4.18,1.26-4.96,3.86-3.94,7.67C111.29,166.41,115.94,171.89,121.97,176.37z"/>
	<path class="st0" d="M7.3,312.5c1.24,0.47,2.46,1.05,3.75,1.36c15.89,3.78,32.05,5.13,48.33,5.51c2.57,0.06,3.19-1.01,3.65-3.46
		c2.93-15.68,4.01-31.54,5-47.42c0.22-3.51-0.67-6.46-1.81-9.56c-4.41-11.96-6.39-24.35-6.28-37.07c0.01-1.44-0.31-3.24,1.94-3.35
		c1.96-0.09,2.67,1.47,2.8,2.93c0.27,3.15,0.06,6.33,0.26,9.48c0.72,11.2,2.9,22.16,8.03,32.15c4.86,9.46,11.85,16.92,23.31,18.35
		c1.76,0.22,2.74,1.3,2.51,3.08c-0.29,2.26-1.96,1.87-3.44,1.48c-3.2-0.86-6.43-1.61-9.45-3.1c-5.25-2.58-9.57-6.26-13.96-12.17
		c0.25,11.08-1.16,20.53-1.99,30.02c-0.48,5.53-2.59,10.93-0.89,16.65c1.7,5.72,3.23,11.51,4.46,17.34
		c2.31,11.01,4.28,21.93,1.67,33.39c-1.75,7.68-1.67,15.79-2.18,23.73c-0.17,2.61-0.06,5.81,2.91,6.85
		c6.67,2.34,13.51,4.23,20.74,6.44c-1.41-4.88-2.68-8.96-3.76-13.08c-4.98-19.06-4.85-38.74-6.99-58.15
		c-1.65-14.99-3.87-29.88-7.35-44.59c-0.53-2.26-3.9-6.04,0.35-7.16c3.95-1.03,3.34,3.78,3.87,6.03
		c5.96,25.06,8.48,50.59,10.21,76.25c0.91,13.43,3.44,26.63,8.2,39.32c0.84,2.24,2.31,3.19,4.68,3.81
		c14.28,3.78,28.64,7.24,43.23,9.47c4.45,0.68,8.96,1.52,13.46,1.98c4.51-0.47,9.01-1.3,13.46-1.98
		c14.59-2.23,28.95-5.68,43.23-9.47c2.37-0.63,3.84-1.57,4.68-3.81c4.76-12.69,7.29-25.89,8.2-39.32
		c1.74-25.65,4.25-51.18,10.21-76.25c0.54-2.26-0.07-7.07,3.87-6.03c4.25,1.11,0.88,4.9,0.35,7.16c-3.48,14.7-5.69,29.6-7.35,44.59
		c-2.14,19.41-2.01,39.09-6.99,58.15c-1.08,4.13-2.35,8.2-3.76,13.08c7.24-2.22,14.07-4.1,20.74-6.44c2.97-1.04,3.08-4.24,2.91-6.85
		c-0.51-7.93-0.44-16.05-2.18-23.73c-2.61-11.46-0.63-22.38,1.67-33.39c1.22-5.84,2.75-11.63,4.46-17.34
		c1.7-5.72-0.41-11.12-0.89-16.65c-0.83-9.5-2.24-18.94-1.99-30.02c-4.39,5.9-8.71,9.58-13.96,12.17c-3.03,1.49-6.25,2.24-9.45,3.1
		c-1.48,0.4-3.15,0.78-3.44-1.48c-0.23-1.78,0.75-2.86,2.51-3.08c11.46-1.43,18.45-8.88,23.31-18.35
		c5.13-9.99,7.31-20.95,8.03-32.15c0.2-3.15,0-6.34,0.26-9.48c0.12-1.45,0.83-3.02,2.8-2.93c2.26,0.11,1.93,1.91,1.94,3.35
		c0.1,12.73-1.88,25.11-6.28,37.07c-1.14,3.1-2.03,6.05-1.81,9.56c1,15.88,2.07,31.74,5,47.42c0.46,2.45,1.08,3.52,3.65,3.46
		c16.28-0.39,32.44-1.74,48.33-5.51c1.28-0.31,2.5-0.88,3.75-1.36c2.63-1,2.96-3.34,2.23-5.38c-0.89-2.5-2.8-0.52-4.11-0.13
		c-13.12,3.88-26.62,5.31-40.19,6.3c-1.58,0.11-4.19,0.99-4.33-1.85c-0.15-2.95,2.53-1.92,4.12-2.17c12.1-1.87,24.38-2.5,36.27-5.83
		c8.2-2.3,8.35-2.1,7.42-10.44c-3.7-33.2-13.21-64.66-28.4-94.4c-3.62-7.09-9.15-12.66-15.57-17.17
		c-14.9-10.46-30.99-18.66-48.19-24.72c-4.32-1.52-6.26-2.02-7.41,3.93c-2.21,11.4-10.63,18.6-20.55,23.62
		c-11.6,5.87-23.74,10.47-36.56,11.67c-12.82-1.2-24.95-5.8-36.56-11.67c-9.91-5.02-18.34-12.22-20.55-23.62
		c-1.15-5.96-3.09-5.46-7.41-3.93c-17.2,6.06-33.29,14.27-48.19,24.72c-6.42,4.51-11.95,10.07-15.57,17.17
		C19.1,228.34,9.59,259.8,5.89,293c-0.93,8.34-0.78,8.15,7.42,10.44c11.89,3.33,24.17,3.96,36.27,5.83
		c1.59,0.25,4.26-0.78,4.12,2.17c-0.14,2.84-2.75,1.96-4.33,1.85c-13.56-0.98-27.06-2.42-40.19-6.3c-1.32-0.39-3.22-2.36-4.11,0.13
		C4.34,309.17,4.67,311.5,7.3,312.5z"/>
	<path class="st0" d="M196.13,124.21c-10.62,9.79-21.69,16.59-33.57,16.54c-11.88,0.05-22.95-6.74-33.57-16.54
		c-0.33,5.11,0.12,10.05-0.99,14.92c-0.63,2.79-3.65,4.64-2.97,7.73c1.31,5.94,3.74,11.34,8.58,15.31
		c8.45,6.93,18.44,10.33,28.94,11.79c10.5-1.46,20.49-4.86,28.94-11.79c4.84-3.96,7.27-9.37,8.58-15.31
		c0.68-3.1-2.34-4.94-2.97-7.73C196.01,134.25,196.46,129.32,196.13,124.21z"/>
	<path class="st0" d="M58.42,343.37c-0.59,0.86-0.68,2.02,0.29,2.69c4.7,3.27,8.79,7.22,12.74,11.57
		c0.46-11.26-2.06-21.82-5.16-33.41C63.98,331.51,62.2,337.87,58.42,343.37z"/>
	<path class="st0" d="M247.42,404.11c-16.78,5.3-33.74,9.97-50.97,13.63c-11.2,2.38-22.46,4.44-33.88,5.43
		c-11.42-0.99-22.68-3.05-33.88-5.43c-17.23-3.66-34.18-8.32-50.97-13.63c-2.07-0.65-3.09-0.72-4.18,1.63
		c-3.52,7.61-1.96,11.82,6,14.61c16.66,5.84,33.95,9.04,51.29,11.96c10.16,1.71,20.28,3.76,31.74,4.73
		c11.46-0.96,21.58-3.02,31.74-4.73c17.34-2.92,34.63-6.11,51.29-11.96c7.95-2.79,9.52-7,6-14.61
		C250.5,403.39,249.49,403.46,247.42,404.11z"/>
	<path class="st0" d="M320.28,322.99c-0.47-6-0.12-6.06-5.74-4.68c-13.41,3.28-27.05,4.7-40.82,5.03
		c-9.57,0.23-10.65,1.69-7.17,10.44c0.85,2.15,1.92,4.19,3.52,5.98c3.05,3.41,2.89,7.2-0.79,9.81c-4.68,3.32-8.22,7.74-12.34,11.59
		c-2.39,2.23-3.1,4.99-2.53,8.18c1.8,10.16,2.87,20.34,0.88,30.61c-0.34,1.73,0.46,3.25,0.9,4.84c0.9,3.31,2.45,6.5,1.49,11.03
		c19.27-13.54,37.58-26.13,53.89-41.33c4.61-4.3,7.27-9.15,6.7-15.8C317.24,346.74,321.23,335.02,320.28,322.99z"/>
	<path class="st0" d="M266.41,346.06c0.97-0.68,0.88-1.83,0.29-2.69c-3.78-5.51-5.56-11.87-7.87-19.14
		c-3.1,11.59-5.62,22.14-5.16,33.41C257.63,353.29,261.71,349.34,266.41,346.06z"/>
	<path class="st1" d="M296.54,199.8c-6-12.14-15.61-20.1-26.7-27.38c-17.34-11.38-36.57-18.09-55.81-24.96
		c-3.35-1.2-6.19-3.22-9.11-5.09c-2.65-1.69-3.94-4.15-3.78-7.59c0.45-9.77-0.74-19.6,1.88-29.28c0.6-2.2,0.9-3.71,3.14-4.93
		c4.4-2.4,4.3-7.26,4.91-11.43c0.58-3.91-0.09-7.94,0.97-11.89c0.34-1.28-0.05-3.26-0.89-4.27c-4.1-4.96-1.46-10.22-1.27-15.47
		c0.59-15.84-0.37-31.2-16.25-40.59c-2.65-1.56-3.78-2.59-7.05-4.57c-8.67-5.25-15.37-7-24.03-6.23
		c-8.66-0.77-18.47,2.54-24.55,6.12c-2.58,1.52-3.88,3.12-6.53,4.68c-15.88,9.39-16.83,24.75-16.25,40.59
		c0.19,5.25,2.83,10.51-1.27,15.47c-0.84,1.01-1.23,2.99-0.89,4.27c1.06,3.95,0.39,7.98,0.97,11.89c0.62,4.17,0.51,9.03,4.91,11.43
		c2.24,1.22,2.54,2.72,3.14,4.93c2.63,9.68,1.44,19.51,1.88,29.28c0.16,3.44-1.14,5.9-3.78,7.59c-2.92,1.87-5.77,3.89-9.11,5.09
		c-19.24,6.87-38.46,13.58-55.81,24.96c-11.09,7.28-20.71,15.24-26.7,27.38C16.87,223.52,9.07,248.48,4,274.34
		c-2.39,12.2-4.37,24.55-3.94,37c0.58,16.89,2.09,33.75,2.72,50.64c0.2,5.39,1.76,9.53,5.51,13.31
		c15.77,15.92,34.15,28.49,52.45,41.15c3.26,2.26,3.71,4.02,2.51,7.67c-2.42,7.36-4.45,14.88-5.28,22.64
		c2.47,0.4,1.46,0.24,3.93,0.64c1.82-7.94,3.37-15.95,6.05-23.67c0.68-1.96,1.18-3.93,4.08-2.32c12.26,6.79,25.91,9.16,39.39,11.87
		c14.44,2.91,28.93,5.75,43.52,7.72c2.53,0.34,5.08,0.54,7.63,0.63c2.55-0.09,5.09-0.28,7.63-0.63c14.59-1.98,29.08-4.81,43.52-7.72
		c13.48-2.72,27.13-5.08,39.39-11.87c2.9-1.61,3.4,0.36,4.08,2.32c2.68,7.72,4.22,15.73,6.05,23.67c2.47-0.4,1.46-0.24,3.93-0.64
		c-0.83-7.76-2.86-15.28-5.28-22.64c-1.2-3.64-0.75-5.41,2.51-7.67c18.3-12.65,36.68-25.23,52.45-41.15
		c3.75-3.79,5.31-7.92,5.51-13.31c0.63-16.89,2.15-33.75,2.72-50.64c0.42-12.45-1.55-24.8-3.94-37
		C316.06,248.48,308.25,223.52,296.54,199.8z M118.94,91.26c-0.11-4.15-0.09-8.26-0.9-12.39c-0.43-2.2-1.06-4.99,2.7-5.89
		c1.9-0.45,0.9-2.44,0.63-3.87c-1.81-9.86-2.42-19.77-0.45-29.68c1.55-7.79,5.16-14.18,12.33-18.4c3.24-1.91,5.67-3.39,8.29-5.11
		c4.31-2.83,8.71-4.1,13.94-4.78c2.46-0.32,4.81-0.41,7.09-0.31c2.27-0.09,4.63-0.01,7.09,0.31c5.23,0.68,9.29,2.04,13.61,4.51
		c3.31,1.89,5.38,3.47,8.62,5.38c7.17,4.23,10.78,10.62,12.33,18.4c1.97,9.9,1.37,19.81-0.45,29.68c-0.26,1.44-1.27,3.42,0.63,3.87
		c3.76,0.9,3.13,3.69,2.7,5.89c-0.81,4.13-0.79,8.24-0.9,12.39c-0.09,3.47-1.1,6.31-5.46,6.1c-1.59-0.08-2.41,0.56-2.23,2.4
		c1.22,12.72-4.59,22.23-14.63,28.99c-6.44,4.33-13.68,8.13-21.3,8.07c-7.62,0.07-14.86-3.73-21.3-8.07
		c-10.05-6.76-15.85-16.28-14.63-28.99c0.18-1.84-0.64-2.48-2.23-2.4C120.04,97.57,119.03,94.73,118.94,91.26z M200.09,146.85
		c-1.31,5.94-3.74,11.34-8.58,15.31c-8.45,6.93-18.44,10.33-28.94,11.79c-10.5-1.46-20.49-4.86-28.94-11.79
		c-4.84-3.96-7.27-9.37-8.58-15.31c-0.68-3.1,2.34-4.94,2.97-7.73c1.1-4.87,0.66-9.8,0.99-14.92c10.62,9.79,21.69,16.59,33.57,16.54
		c11.88,0.05,22.95-6.74,33.57-16.54c0.33,5.11-0.12,10.05,0.99,14.92C197.75,141.92,200.77,143.76,200.09,146.85z M113.23,151.31
		c2.34-0.7,4.46-2.12,7.17-3.46c2.19,10.18,7.98,17.93,17.12,22.42c8.28,4.07,16.63,7.29,25.05,8.51
		c8.42-1.22,16.77-4.45,25.05-8.51c9.13-4.48,14.93-12.24,17.12-22.42c2.71,1.34,4.84,2.76,7.17,3.46c4.18,1.26,4.96,3.86,3.94,7.67
		c-2,7.44-6.66,12.91-12.68,17.39c-9.99,7.42-21.56,11.37-33.51,13.5c-2.38,0.42-4.74,0.77-7.09,1.04
		c-2.34-0.27-4.71-0.61-7.09-1.04c-11.95-2.13-23.52-6.08-33.51-13.5c-6.03-4.48-10.68-9.95-12.68-17.39
		C108.26,155.17,109.05,152.57,113.23,151.31z M5.07,307.12c0.89-2.5,2.8-0.52,4.11-0.13c13.12,3.88,26.62,5.31,40.19,6.3
		c1.58,0.11,4.19,0.99,4.33-1.85c0.15-2.95-2.53-1.92-4.12-2.17c-12.1-1.87-24.38-2.5-36.27-5.83c-8.2-2.3-8.35-2.1-7.42-10.44
		c3.7-33.2,13.21-64.66,28.4-94.4c3.62-7.09,9.15-12.66,15.57-17.17c14.9-10.46,30.99-18.66,48.19-24.72
		c4.32-1.52,6.26-2.02,7.41,3.93c2.21,11.4,10.63,18.6,20.55,23.62c11.6,5.87,23.74,10.47,36.56,11.67
		c12.82-1.2,24.95-5.8,36.56-11.67c9.91-5.02,18.34-12.22,20.55-23.62c1.15-5.96,3.09-5.46,7.41-3.93
		c17.2,6.06,33.29,14.27,48.19,24.72c6.42,4.51,11.95,10.07,15.57,17.17c15.19,29.74,24.7,61.2,28.4,94.4
		c0.93,8.34,0.78,8.15-7.42,10.44c-11.89,3.33-24.17,3.96-36.27,5.83c-1.59,0.25-4.26-0.78-4.12,2.17c0.14,2.84,2.75,1.96,4.33,1.85
		c13.56-0.98,27.06-2.42,40.19-6.3c1.32-0.39,3.22-2.36,4.11,0.13c0.73,2.05,0.4,4.38-2.23,5.38c-1.24,0.47-2.46,1.05-3.75,1.36
		c-15.89,3.78-32.05,5.13-48.33,5.51c-2.57,0.06-3.19-1.01-3.65-3.46c-2.93-15.68-4.01-31.54-5-47.42
		c-0.22-3.51,0.67-6.46,1.81-9.56c4.41-11.96,6.39-24.35,6.28-37.07c-0.01-1.44,0.31-3.24-1.94-3.35c-1.96-0.09-2.67,1.47-2.8,2.93
		c-0.27,3.15-0.06,6.33-0.26,9.48c-0.72,11.2-2.9,22.16-8.03,32.15c-4.86,9.46-11.85,16.92-23.31,18.35
		c-1.76,0.22-2.74,1.3-2.51,3.08c0.29,2.26,1.96,1.87,3.44,1.48c3.2-0.86,6.43-1.61,9.45-3.1c5.25-2.58,9.57-6.26,13.96-12.17
		c-0.25,11.08,1.16,20.53,1.99,30.02c0.48,5.53,2.59,10.93,0.89,16.65c-1.7,5.72-3.23,11.51-4.46,17.34
		c-2.31,11.01-4.28,21.93-1.67,33.39c1.75,7.68,1.67,15.79,2.18,23.73c0.17,2.61,0.06,5.81-2.91,6.85
		c-6.67,2.34-13.51,4.23-20.74,6.44c1.41-4.88,2.68-8.96,3.76-13.08c4.98-19.06,4.85-38.74,6.99-58.15
		c1.65-14.99,3.87-29.88,7.35-44.59c0.53-2.26,3.9-6.04-0.35-7.16c-3.95-1.03-3.34,3.78-3.87,6.03
		c-5.96,25.06-8.48,50.59-10.21,76.25c-0.91,13.43-3.44,26.63-8.2,39.32c-0.84,2.24-2.31,3.19-4.68,3.81
		c-14.28,3.78-28.64,7.24-43.23,9.47c-4.45,0.68-8.96,1.52-13.46,1.98c-4.51-0.47-9.01-1.3-13.46-1.98
		c-14.59-2.23-28.95-5.68-43.23-9.47c-2.37-0.63-3.84-1.57-4.68-3.81c-4.76-12.69-7.29-25.89-8.2-39.32
		c-1.74-25.65-4.25-51.18-10.21-76.25c-0.54-2.26,0.07-7.07-3.87-6.03c-4.25,1.11-0.88,4.9-0.35,7.16
		c3.48,14.7,5.69,29.6,7.35,44.59c2.14,19.41,2.01,39.09,6.99,58.15c1.08,4.13,2.35,8.2,3.76,13.08c-7.24-2.22-14.07-4.1-20.74-6.44
		c-2.97-1.04-3.08-4.24-2.91-6.85c0.51-7.93,0.44-16.05,2.18-23.73c2.61-11.46,0.63-22.38-1.67-33.39
		c-1.22-5.84-2.75-11.63-4.46-17.34c-1.7-5.72,0.41-11.12,0.89-16.65c0.83-9.5,2.24-18.94,1.99-30.02
		c4.39,5.9,8.71,9.58,13.96,12.17c3.03,1.49,6.25,2.24,9.45,3.1c1.48,0.4,3.15,0.78,3.44-1.48c0.23-1.78-0.75-2.86-2.51-3.08
		c-11.46-1.43-18.45-8.88-23.31-18.35c-5.13-9.99-7.31-20.95-8.03-32.15c-0.2-3.15,0-6.34-0.26-9.48c-0.12-1.45-0.83-3.02-2.8-2.93
		c-2.26,0.11-1.93,1.91-1.94,3.35c-0.1,12.73,1.88,25.11,6.28,37.07c1.14,3.1,2.03,6.05,1.81,9.56c-1,15.88-2.07,31.74-5,47.42
		c-0.46,2.45-1.08,3.52-3.65,3.46c-16.28-0.39-32.44-1.74-48.33-5.51c-1.28-0.31-2.5-0.88-3.75-1.36
		C4.67,311.5,4.34,309.17,5.07,307.12z M70.72,369.35c-1.8,10.16-2.87,20.34-0.88,30.61c0.34,1.73-0.46,3.25-0.9,4.84
		c-0.9,3.31-2.45,6.5-1.49,11.03c-19.27-13.54-37.58-26.13-53.89-41.33c-4.61-4.3-7.27-9.15-6.7-15.8
		c1.03-11.96-2.97-23.68-2.01-35.71c0.47-6,0.12-6.06,5.74-4.68c13.41,3.28,27.05,4.7,40.82,5.03c9.57,0.23,10.65,1.69,7.17,10.44
		c-0.85,2.15-1.92,4.19-3.52,5.98c-3.05,3.41-2.89,7.2,0.79,9.81c4.68,3.32,8.22,7.74,12.34,11.59
		C70.58,363.39,71.29,366.15,70.72,369.35z M71.46,357.64c-3.96-4.35-8.04-8.3-12.74-11.57c-0.97-0.68-0.88-1.83-0.29-2.69
		c3.78-5.51,5.56-11.87,7.87-19.14C69.4,335.82,71.91,346.37,71.46,357.64z M245.6,420.35c-16.66,5.84-33.95,9.04-51.29,11.96
		c-10.16,1.71-20.28,3.76-31.74,4.73c-11.46-0.96-21.58-3.02-31.74-4.73c-17.34-2.92-34.63-6.11-51.29-11.96
		c-7.95-2.79-9.52-7-6-14.61c1.09-2.35,2.11-2.28,4.18-1.63c16.78,5.3,33.74,9.97,50.97,13.63c11.2,2.38,22.46,4.44,33.88,5.43
		c11.42-0.99,22.68-3.05,33.88-5.43c17.23-3.66,34.18-8.32,50.97-13.63c2.07-0.65,3.09-0.72,4.18,1.63
		C255.12,413.35,253.55,417.57,245.6,420.35z M258.83,324.23c2.31,7.28,4.1,13.64,7.87,19.14c0.59,0.86,0.68,2.02-0.29,2.69
		c-4.7,3.27-8.79,7.22-12.74,11.57C253.21,346.37,255.73,335.82,258.83,324.23z M318.27,358.7c0.57,6.65-2.09,11.5-6.7,15.8
		c-16.31,15.2-34.61,27.79-53.89,41.33c0.96-4.53-0.59-7.72-1.49-11.03c-0.43-1.59-1.23-3.11-0.9-4.84
		c1.99-10.27,0.92-20.45-0.88-30.61c-0.57-3.2,0.14-5.95,2.53-8.18c4.12-3.85,7.66-8.27,12.34-11.59c3.68-2.61,3.84-6.4,0.79-9.81
		c-1.6-1.79-2.66-3.83-3.52-5.98c-3.47-8.75-2.4-10.21,7.17-10.44c13.77-0.33,27.41-1.75,40.82-5.03c5.62-1.37,5.27-1.32,5.74,4.68
		C321.23,335.02,317.24,346.74,318.27,358.7z"/>
</g>
<path class="st1" d="M115.93,73.81c-2.39-9.2-6.4-28.34-1.1-47.82c2.88-10.57,14.53-11.67,14.53-11.67s7.49-20.7,44.04-12.33
	s36.99,16.95,39.63,38.97s-3.3,34.13-3.3,34.13s-2.86,4.18-5.72-15.19s-20.92-19.6-24.44-24s5.5,7.27,8.59,7.49
	c3.08,0.22-36.28,1.1-54.39-12.55C116.81,36.78,120.11,89.92,115.93,73.81z"/>
</svg>
