<svg xmlns="http://www.w3.org/2000/svg" viewBox="0 0 248.12 247.71">
	<path d="M183.86,117.21c-4,19.91-8,39.83-12,59.72-1.27,6.24-4.36,8.76-10.81,8.8-12.5.07-25,0-37.49,0-12,0-24,0-36,0-7.16,0-10-2.39-11.4-9.26-3.93-19.58-7.78-39.17-11.8-58.74-1.17-5.67.18-9.81,5.07-13.37,15.74-11.48,31.23-23.31,46.84-35,6.62-4.94,8.94-5,15.52,0C147.55,81.13,163.19,93,179,104.65,183.57,108,184.92,112,183.86,117.21Z" fill="#df181d" />
	<path d="M115.2,45.66c0,2.58-.77,3.83-3.11,5.39C103.39,56.88,95,63.2,86.64,69.53,75.36,78.06,64.23,86.8,53,95.39a3.64,3.64,0,0,1-2.63.76C35.64,92.71,21,89.18,5.94,85.59,19.83,38.82,65.52,3,114.7,0a30,30,0,0,1,.43,3.68C115.16,17.67,115.1,31.67,115.2,45.66Z" fill="#df181d" />
	<path d="M242.19,85.59c-15,3.59-29.7,7.14-44.42,10.55-.87.2-2.15-.48-3-1.11-18.44-14-36.58-28.36-55.42-41.76-5.05-3.59-6.72-6.74-6.53-12.6.45-13.44.15-26.91.15-40.39C178,2.13,225.73,33.87,242.19,85.59Z" fill="#df181d" />
	<path d="M195.44,224.65c-39.08,29.74-99.91,31.68-142.77.17C60,217.69,67,210.79,74.05,204a5.83,5.83,0,0,1,3.77-1.53c7.46.22,14.91.95,22.37,1,19.63.15,39.27.05,58.9,0,1.83,0,3.85.41,5.46-.21,6.47-2.48,10.31.86,14.36,5.28C184.07,214.24,189.85,219.29,195.44,224.65Z" fill="#df181d" />
	<path d="M55.34,197.65c-5.58,5-10.56,10.6-16.35,16.52C7.79,183-4.54,146.5,1.47,103c2.68.56,4.9,1,7.09,1.48,11.18,2.63,22.32,5.4,33.54,7.84,3,.64,3.74,1.88,4.3,4.82,4.14,21.9,7.93,43.92,13.36,65.52C61.54,189.77,60.17,193.36,55.34,197.65Z" fill="#df181d" />
	<path d="M209.17,214.08c-7.48-7.56-14.75-14.84-21.9-22.23a3.83,3.83,0,0,1-.69-3c4.1-19.17,8.33-38.32,12.45-57.49,1.11-5.21,1.89-10.48,3-15.68.23-1.06,1.18-2.58,2.06-2.79,13.87-3.4,27.78-6.62,42.59-10.09C252.53,146.44,240.36,183,209.17,214.08Z" fill="#df181d" />
</svg>